<svg data-v-423bf9ae="" xmlns="http://www.w3.org/2000/svg" viewBox="0 0 577 90" class="iconLeft"><!----><!----><!----><g data-v-423bf9ae="" id="f5622a49-d36f-4d12-bc89-5d6f4f3e3da8" fill="#ffffff" transform="matrix(4.160887634018687,0,0,4.160887634018687,124.5638178565743,9.715673260996056)"><path d="M11.62 1.40L11.62 1.40Q11.93 1.40 12.14 1.61L12.14 1.61L12.14 1.61Q12.35 1.82 12.35 2.13L12.35 2.13L12.35 11.61L12.35 11.61Q12.35 11.91 12.13 12.12L12.13 12.12L12.13 12.12Q11.91 12.33 11.62 12.33L11.62 12.33L11.62 12.33Q11.31 12.33 11.10 12.12L11.10 12.12L11.10 12.12Q10.89 11.91 10.89 11.61L10.89 11.61L10.89 4.65L7.50 11.55L7.50 11.55Q7.27 11.91 6.87 11.91L6.87 11.91L6.87 11.91Q6.41 11.91 6.20 11.48L6.20 11.48L2.86 4.77L2.86 11.61L2.86 11.61Q2.86 11.91 2.65 12.12L2.65 12.12L2.65 12.12Q2.44 12.33 2.13 12.33L2.13 12.33L2.13 12.33Q1.82 12.33 1.61 12.12L1.61 12.12L1.61 12.12Q1.40 11.91 1.40 11.61L1.40 11.61L1.40 2.13L1.40 2.13Q1.40 1.82 1.61 1.61L1.61 1.61L1.61 1.61Q1.82 1.40 2.13 1.40L2.13 1.40L2.13 1.40Q2.55 1.40 2.77 1.79L2.77 1.79L6.93 10.12L10.98 1.79L10.98 1.79Q11.20 1.40 11.62 1.40L11.62 1.40ZM18.48 4.62L18.48 4.62Q19.59 4.62 20.46 5.12L20.46 5.12L20.46 5.12Q21.34 5.61 21.83 6.50L21.83 6.50L21.83 6.50Q22.33 7.38 22.33 8.51L22.33 8.51L22.33 8.51Q22.33 9.63 21.84 10.51L21.84 10.51L21.84 10.51Q21.35 11.40 20.48 11.89L20.48 11.89L20.48 11.89Q19.60 12.39 18.48 12.39L18.48 12.39L18.48 12.39Q17.36 12.39 16.48 11.89L16.48 11.89L16.48 11.89Q15.60 11.40 15.11 10.51L15.11 10.51L15.11 10.51Q14.62 9.63 14.62 8.51L14.62 8.51L14.62 8.51Q14.62 7.38 15.11 6.50L15.11 6.50L15.11 6.50Q15.60 5.61 16.48 5.12L16.48 5.12L16.48 5.12Q17.36 4.62 18.48 4.62L18.48 4.62ZM18.48 5.88L18.48 5.88Q17.77 5.88 17.20 6.22L17.20 6.22L17.20 6.22Q16.63 6.55 16.31 7.15L16.31 7.15L16.31 7.15Q15.99 7.76 15.99 8.51L15.99 8.51L15.99 8.51Q15.99 9.27 16.31 9.86L16.31 9.86L16.31 9.86Q16.63 10.46 17.20 10.79L17.20 10.79L17.20 10.79Q17.77 11.13 18.48 11.13L18.48 11.13L18.48 11.13Q19.19 11.13 19.76 10.79L19.76 10.79L19.76 10.79Q20.33 10.46 20.64 9.86L20.64 9.86L20.64 9.86Q20.96 9.27 20.96 8.51L20.96 8.51L20.96 8.51Q20.96 7.76 20.64 7.15L20.64 7.15L20.64 7.15Q20.33 6.55 19.76 6.22L19.76 6.22L19.76 6.22Q19.19 5.88 18.48 5.88L18.48 5.88ZM28.27 4.61L28.27 4.61Q29.23 4.61 30.00 5.03L30.00 5.03L30.00 5.03Q30.77 5.45 31.21 6.25L31.21 6.25L31.21 6.25Q31.64 7.06 31.64 8.19L31.64 8.19L31.64 11.63L31.64 11.63Q31.64 11.94 31.44 12.14L31.44 12.14L31.44 12.14Q31.23 12.35 30.93 12.35L30.93 12.35L30.93 12.35Q30.62 12.35 30.41 12.14L30.41 12.14L30.41 12.14Q30.21 11.94 30.21 11.63L30.21 11.63L30.21 8.19L30.21 8.19Q30.21 7.06 29.60 6.47L29.60 6.47L29.60 6.47Q28.99 5.89 27.99 5.89L27.99 5.89L27.99 5.89Q27.40 5.89 26.91 6.13L26.91 6.13L26.91 6.13Q26.43 6.37 26.16 6.78L26.16 6.78L26.16 6.78Q25.89 7.18 25.89 7.69L25.89 7.69L25.89 11.63L25.89 11.63Q25.89 11.94 25.69 12.14L25.69 12.14L25.69 12.14Q25.49 12.35 25.17 12.35L25.17 12.35L25.17 12.35Q24.86 12.35 24.66 12.14L24.66 12.14L24.66 12.14Q24.46 11.94 24.46 11.63L24.46 11.63L24.46 5.39L24.46 5.39Q24.46 5.07 24.66 4.87L24.66 4.87L24.66 4.87Q24.86 4.68 25.17 4.68L25.17 4.68L25.17 4.68Q25.49 4.68 25.69 4.87L25.69 4.87L25.69 4.87Q25.89 5.07 25.89 5.39L25.89 5.39L25.89 5.54L25.89 5.54Q26.33 5.10 26.95 4.85L26.95 4.85L26.95 4.85Q27.57 4.61 28.27 4.61L28.27 4.61ZM39.79 11.33L39.79 11.33Q39.94 11.49 39.94 11.75L39.94 11.75L39.94 11.75Q39.94 12.05 39.69 12.26L39.69 12.26L39.69 12.26Q39.48 12.43 39.24 12.43L39.24 12.43L39.24 12.43Q38.93 12.43 38.74 12.18L38.74 12.18L36.08 8.89L35.38 9.51L35.38 11.65L35.38 11.65Q35.38 11.96 35.19 12.14L35.19 12.14L35.19 12.14Q35 12.33 34.69 12.33L34.69 12.33L34.69 12.33Q34.38 12.33 34.20 12.14L34.20 12.14L34.20 12.14Q34.01 11.96 34.01 11.65L34.01 11.65L34.01 2.09L34.01 2.09Q34.01 1.78 34.20 1.59L34.20 1.59L34.20 1.59Q34.38 1.40 34.69 1.40L34.69 1.40L34.69 1.40Q35 1.40 35.19 1.59L35.19 1.59L35.19 1.59Q35.38 1.78 35.38 2.09L35.38 2.09L35.38 7.78L38.78 4.75L38.78 4.75Q38.96 4.56 39.21 4.56L39.21 4.56L39.21 4.56Q39.51 4.56 39.69 4.79L39.69 4.79L39.69 4.79Q39.87 4.97 39.87 5.22L39.87 5.22L39.87 5.22Q39.87 5.52 39.65 5.70L39.65 5.70L37.07 7.99L39.79 11.33ZM48.85 8.39L48.85 8.39Q48.85 8.65 48.66 8.83L48.66 8.83L48.66 8.83Q48.48 9.00 48.20 9.00L48.20 9.00L42.88 9.00L42.88 9.00Q43.04 9.98 43.77 10.58L43.77 10.58L43.77 10.58Q44.51 11.19 45.57 11.19L45.57 11.19L45.57 11.19Q45.99 11.19 46.45 11.03L46.45 11.03L46.45 11.03Q46.90 10.88 47.19 10.65L47.19 10.65L47.19 10.65Q47.39 10.50 47.66 10.50L47.66 10.50L47.66 10.50Q47.92 10.50 48.08 10.64L48.08 10.64L48.08 10.64Q48.33 10.85 48.33 11.12L48.33 11.12L48.33 11.12Q48.33 11.37 48.10 11.54L48.10 11.54L48.10 11.54Q47.63 11.91 46.92 12.15L46.92 12.15L46.92 12.15Q46.21 12.39 45.57 12.39L45.57 12.39L45.57 12.39Q44.42 12.39 43.51 11.89L43.51 11.89L43.51 11.89Q42.60 11.40 42.09 10.51L42.09 10.51L42.09 10.51Q41.58 9.63 41.58 8.51L41.58 8.51L41.58 8.51Q41.58 7.39 42.06 6.50L42.06 6.50L42.06 6.50Q42.55 5.61 43.41 5.12L43.41 5.12L43.41 5.12Q44.27 4.62 45.36 4.62L45.36 4.62L45.36 4.62Q46.44 4.62 47.22 5.10L47.22 5.10L47.22 5.10Q48.01 5.57 48.43 6.43L48.43 6.43L48.43 6.43Q48.85 7.28 48.85 8.39L48.85 8.39ZM45.36 5.82L45.36 5.82Q44.34 5.82 43.70 6.38L43.70 6.38L43.70 6.38Q43.06 6.94 42.90 7.88L42.90 7.88L47.56 7.88L47.56 7.88Q47.43 6.94 46.86 6.38L46.86 6.38L46.86 6.38Q46.28 5.82 45.36 5.82L45.36 5.82ZM56.52 4.75L56.52 4.75Q56.95 4.91 56.95 5.29L56.95 5.29L56.95 5.29Q56.95 5.43 56.87 5.63L56.87 5.63L52.58 15.26L52.58 15.26Q52.42 15.69 52.04 15.69L52.04 15.69L52.04 15.69Q51.90 15.69 51.70 15.61L51.70 15.61L51.70 15.61Q51.28 15.43 51.28 15.06L51.28 15.06L51.28 15.06Q51.28 14.90 51.37 14.73L51.37 14.73L52.77 11.58L49.62 5.60L49.62 5.60Q49.55 5.47 49.55 5.31L49.55 5.31L49.55 5.31Q49.55 5.12 49.66 4.97L49.66 4.97L49.66 4.97Q49.77 4.82 49.95 4.73L49.95 4.73L49.95 4.73Q50.08 4.68 50.23 4.68L50.23 4.68L50.23 4.68Q50.62 4.68 50.82 5.07L50.82 5.07L53.38 10.16L55.64 5.08L55.64 5.08Q55.82 4.68 56.18 4.68L56.18 4.68L56.18 4.68Q56.36 4.68 56.52 4.75L56.52 4.75ZM62.02 1.27L62.02 1.27Q63.22 1.27 64.05 1.76L64.05 1.76L64.05 1.76Q64.88 2.25 65.45 3.16L65.45 3.16L65.45 3.16Q65.62 3.43 65.62 3.67L65.62 3.67L65.62 3.67Q65.62 3.98 65.34 4.17L65.34 4.17L65.34 4.17Q65.18 4.27 64.97 4.27L64.97 4.27L64.97 4.27Q64.76 4.27 64.58 4.16L64.58 4.16L64.58 4.16Q64.40 4.06 64.30 3.88L64.30 3.88L64.30 3.88Q63.92 3.25 63.36 2.92L63.36 2.92L63.36 2.92Q62.79 2.59 61.92 2.59L61.92 2.59L61.92 2.59Q60.86 2.59 60.20 3.00L60.20 3.00L60.20 3.00Q59.54 3.42 59.54 4.20L59.54 4.20L59.54 4.20Q59.54 4.93 60.13 5.42L60.13 5.42L60.13 5.42Q60.72 5.91 62.23 6.06L62.23 6.06L62.23 6.06Q63.91 6.23 64.83 7.08L64.83 7.08L64.83 7.08Q65.76 7.92 65.76 9.31L65.76 9.31L65.76 9.31Q65.76 10.32 65.21 11.04L65.21 11.04L65.21 11.04Q64.67 11.76 63.76 12.12L63.76 12.12L63.76 12.12Q62.86 12.47 61.82 12.47L61.82 12.47L61.82 12.47Q60.47 12.47 59.35 11.86L59.35 11.86L59.35 11.86Q58.24 11.24 57.82 10.25L57.82 10.25L57.82 10.25Q57.75 10.08 57.75 9.97L57.75 9.97L57.75 9.97Q57.75 9.76 57.90 9.60L57.90 9.60L57.90 9.60Q58.06 9.44 58.32 9.38L58.32 9.38L58.32 9.38Q58.37 9.37 58.46 9.37L58.46 9.37L58.46 9.37Q58.69 9.37 58.89 9.50L58.89 9.50L58.89 9.50Q59.09 9.63 59.19 9.86L59.19 9.86L59.19 9.86Q59.44 10.40 60.19 10.78L60.19 10.78L60.19 10.78Q60.93 11.16 61.82 11.16L61.82 11.16L61.82 11.16Q62.87 11.16 63.60 10.67L63.60 10.67L63.60 10.67Q64.33 10.19 64.33 9.35L64.33 9.35L64.33 9.35Q64.33 8.55 63.71 7.99L63.71 7.99L63.71 7.99Q63.10 7.42 61.84 7.29L61.84 7.29L61.84 7.29Q60.10 7.13 59.11 6.28L59.11 6.28L59.11 6.28Q58.11 5.43 58.11 4.16L58.11 4.16L58.11 4.16Q58.11 3.26 58.63 2.61L58.63 2.61L58.63 2.61Q59.14 1.96 60.03 1.62L60.03 1.62L60.03 1.62Q60.91 1.27 62.02 1.27L62.02 1.27ZM71.25 4.62L71.25 4.62Q72.90 4.62 73.99 5.88L73.99 5.88L73.99 5.88Q74.13 6.03 74.13 6.24L74.13 6.24L74.13 6.24Q74.13 6.55 73.82 6.76L73.82 6.76L73.82 6.76Q73.68 6.86 73.50 6.86L73.50 6.86L73.50 6.86Q73.18 6.86 72.95 6.61L72.95 6.61L72.95 6.61Q72.60 6.23 72.19 6.05L72.19 6.05L72.19 6.05Q71.78 5.88 71.25 5.88L71.25 5.88L71.25 5.88Q70.17 5.88 69.50 6.60L69.50 6.60L69.50 6.60Q68.82 7.32 68.82 8.51L68.82 8.51L68.82 8.51Q68.82 9.27 69.14 9.86L69.14 9.86L69.14 9.86Q69.45 10.46 70.02 10.79L70.02 10.79L70.02 10.79Q70.59 11.13 71.32 11.13L71.32 11.13L71.32 11.13Q72.27 11.13 72.86 10.64L72.86 10.64L72.86 10.64Q73.12 10.44 73.37 10.44L73.37 10.44L73.37 10.44Q73.57 10.44 73.74 10.57L73.74 10.57L73.74 10.57Q74.00 10.79 74.00 11.07L74.00 11.07L74.00 11.07Q74.00 11.28 73.84 11.45L73.84 11.45L73.84 11.45Q72.83 12.39 71.32 12.39L71.32 12.39L71.32 12.39Q70.21 12.39 69.33 11.89L69.33 11.89L69.33 11.89Q68.45 11.38 67.95 10.49L67.95 10.49L67.95 10.49Q67.45 9.60 67.45 8.51L67.45 8.51L67.45 8.51Q67.45 7.39 67.94 6.50L67.94 6.50L67.94 6.50Q68.42 5.61 69.29 5.12L69.29 5.12L69.29 5.12Q70.15 4.62 71.25 4.62L71.25 4.62ZM80.01 4.59L80.01 4.59Q80.75 4.59 81.17 4.82L81.17 4.82L81.17 4.82Q81.59 5.04 81.59 5.38L81.59 5.38L81.59 5.38Q81.59 5.47 81.58 5.52L81.58 5.52L81.58 5.52Q81.45 5.96 81.02 5.96L81.02 5.96L81.02 5.96Q80.95 5.96 80.81 5.94L80.81 5.94L80.81 5.94Q80.25 5.84 79.90 5.84L79.90 5.84L79.90 5.84Q78.89 5.84 78.27 6.30L78.27 6.30L78.27 6.30Q77.66 6.76 77.66 7.55L77.66 7.55L77.66 11.63L77.66 11.63Q77.66 11.97 77.48 12.15L77.48 12.15L77.48 12.15Q77.31 12.33 76.96 12.33L76.96 12.33L76.96 12.33Q76.62 12.33 76.44 12.16L76.44 12.16L76.44 12.16Q76.26 11.98 76.26 11.63L76.26 11.63L76.26 5.38L76.26 5.38Q76.26 5.04 76.44 4.86L76.44 4.86L76.44 4.86Q76.62 4.68 76.96 4.68L76.96 4.68L76.96 4.68Q77.66 4.68 77.66 5.38L77.66 5.38L77.66 5.64L77.66 5.64Q78.08 5.15 78.69 4.87L78.69 4.87L78.69 4.87Q79.31 4.59 80.01 4.59L80.01 4.59ZM83.20 5.39L83.20 5.39Q83.20 5.07 83.41 4.87L83.41 4.87L83.41 4.87Q83.61 4.68 83.92 4.68L83.92 4.68L83.92 4.68Q84.24 4.68 84.43 4.87L84.43 4.87L84.43 4.87Q84.63 5.07 84.63 5.39L84.63 5.39L84.63 11.62L84.63 11.62Q84.63 11.93 84.43 12.13L84.43 12.13L84.43 12.13Q84.24 12.33 83.92 12.33L83.92 12.33L83.92 12.33Q83.61 12.33 83.41 12.13L83.41 12.13L83.41 12.13Q83.20 11.93 83.20 11.62L83.20 11.62L83.20 5.39ZM83.92 1.58L83.92 1.58Q84.29 1.58 84.57 1.85L84.57 1.85L84.57 1.85Q84.84 2.13 84.84 2.51L84.84 2.51L84.84 2.51Q84.84 2.88 84.57 3.16L84.57 3.16L84.57 3.16Q84.29 3.43 83.92 3.43L83.92 3.43L83.92 3.43Q83.54 3.43 83.27 3.16L83.27 3.16L83.27 3.16Q82.99 2.88 82.99 2.51L82.99 2.51L82.99 2.51Q82.99 2.13 83.27 1.85L83.27 1.85L83.27 1.85Q83.54 1.58 83.92 1.58L83.92 1.58ZM91.14 4.62L91.14 4.62Q92.22 4.62 93.11 5.13L93.11 5.13L93.11 5.13Q94.00 5.64 94.50 6.53L94.50 6.53L94.50 6.53Q95.00 7.42 95.00 8.51L95.00 8.51L95.00 8.51Q95.00 9.60 94.53 10.49L94.53 10.49L94.53 10.49Q94.07 11.38 93.25 11.89L93.25 11.89L93.25 11.89Q92.43 12.39 91.42 12.39L91.42 12.39L91.42 12.39Q90.61 12.39 89.91 12.05L89.91 12.05L89.91 12.05Q89.21 11.72 88.72 11.12L88.72 11.12L88.72 14.90L88.72 14.90Q88.72 15.22 88.52 15.41L88.52 15.41L88.52 15.41Q88.33 15.61 88.00 15.61L88.00 15.61L88.00 15.61Q87.70 15.61 87.49 15.41L87.49 15.41L87.49 15.41Q87.29 15.22 87.29 14.90L87.29 14.90L87.29 8.51L87.29 8.51Q87.29 7.42 87.80 6.53L87.80 6.53L87.80 6.53Q88.31 5.64 89.19 5.13L89.19 5.13L89.19 5.13Q90.06 4.62 91.14 4.62L91.14 4.62ZM91.14 11.13L91.14 11.13Q91.84 11.13 92.41 10.79L92.41 10.79L92.41 10.79Q92.97 10.44 93.30 9.85L93.30 9.85L93.30 9.85Q93.63 9.25 93.63 8.51L93.63 8.51L93.63 8.51Q93.63 7.77 93.30 7.17L93.30 7.17L93.30 7.17Q92.97 6.57 92.41 6.22L92.41 6.22L92.41 6.22Q91.84 5.88 91.14 5.88L91.14 5.88L91.14 5.88Q90.44 5.88 89.87 6.22L89.87 6.22L89.87 6.22Q89.31 6.57 88.98 7.17L88.98 7.17L88.98 7.17Q88.66 7.77 88.66 8.51L88.66 8.51L88.66 8.51Q88.66 9.25 88.98 9.85L88.98 9.85L88.98 9.85Q89.31 10.44 89.87 10.79L89.87 10.79L89.87 10.79Q90.44 11.13 91.14 11.13L91.14 11.13ZM100.39 10.93L100.39 10.93Q100.65 10.93 100.82 11.13L100.82 11.13L100.82 11.13Q101.00 11.33 101.00 11.63L101.00 11.63L101.00 11.63Q101.00 11.94 100.77 12.14L100.77 12.14L100.77 12.14Q100.53 12.33 100.17 12.33L100.17 12.33L99.92 12.33L99.92 12.33Q99.23 12.33 98.67 11.98L98.67 11.98L98.67 11.98Q98.10 11.62 97.78 11.00L97.78 11.00L97.78 11.00Q97.45 10.39 97.45 9.62L97.45 9.62L97.45 6.16L96.81 6.16L96.81 6.16Q96.52 6.16 96.33 5.99L96.33 5.99L96.33 5.99Q96.15 5.82 96.15 5.57L96.15 5.57L96.15 5.57Q96.15 5.29 96.33 5.12L96.33 5.12L96.33 5.12Q96.52 4.96 96.81 4.96L96.81 4.96L97.45 4.96L97.45 2.94L97.45 2.94Q97.45 2.63 97.65 2.44L97.65 2.44L97.65 2.44Q97.85 2.24 98.15 2.24L98.15 2.24L98.15 2.24Q98.46 2.24 98.66 2.44L98.66 2.44L98.66 2.44Q98.85 2.63 98.85 2.94L98.85 2.94L98.85 4.96L100.04 4.96L100.04 4.96Q100.34 4.96 100.52 5.12L100.52 5.12L100.52 5.12Q100.70 5.29 100.70 5.57L100.70 5.57L100.70 5.57Q100.70 5.82 100.52 5.99L100.52 5.99L100.52 5.99Q100.34 6.16 100.04 6.16L100.04 6.16L98.85 6.16L98.85 9.62L98.85 9.62Q98.85 10.18 99.16 10.56L99.16 10.56L99.16 10.56Q99.47 10.93 99.92 10.93L99.92 10.93L100.39 10.93ZM105.43 4.62L105.43 4.62Q106.34 4.62 107.06 4.91L107.06 4.91L107.06 4.91Q107.79 5.21 108.21 5.73L108.21 5.73L108.21 5.73Q108.39 5.95 108.39 6.17L108.39 6.17L108.39 6.17Q108.39 6.41 108.15 6.61L108.15 6.61L108.15 6.61Q108.00 6.72 107.76 6.72L107.76 6.72L107.76 6.72Q107.39 6.72 107.10 6.45L107.10 6.45L107.10 6.45Q106.75 6.13 106.36 6.00L106.36 6.00L106.36 6.00Q105.97 5.87 105.41 5.87L105.41 5.87L105.41 5.87Q104.76 5.87 104.35 6.08L104.35 6.08L104.35 6.08Q103.94 6.30 103.94 6.69L103.94 6.69L103.94 6.69Q103.94 6.97 104.08 7.16L104.08 7.16L104.08 7.16Q104.22 7.35 104.61 7.51L104.61 7.51L104.61 7.51Q105 7.67 105.74 7.83L105.74 7.83L105.74 7.83Q107.27 8.13 107.91 8.68L107.91 8.68L107.91 8.68Q108.54 9.23 108.54 10.09L108.54 10.09L108.54 10.09Q108.54 10.74 108.19 11.26L108.19 11.26L108.19 11.26Q107.84 11.79 107.16 12.09L107.16 12.09L107.16 12.09Q106.48 12.39 105.53 12.39L105.53 12.39L105.53 12.39Q104.58 12.39 103.74 12.10L103.74 12.10L103.74 12.10Q102.90 11.80 102.42 11.33L102.42 11.33L102.42 11.33Q102.24 11.14 102.24 10.89L102.24 10.89L102.24 10.89Q102.24 10.56 102.52 10.35L102.52 10.35L102.52 10.35Q102.79 10.15 103.01 10.15L103.01 10.15L103.01 10.15Q103.29 10.15 103.54 10.40L103.54 10.40L103.54 10.40Q103.81 10.70 104.34 10.91L104.34 10.91L104.34 10.91Q104.87 11.13 105.48 11.13L105.48 11.13L105.48 11.13Q106.27 11.13 106.72 10.86L106.72 10.86L106.72 10.86Q107.16 10.60 107.16 10.15L107.16 10.15L107.16 10.15Q107.16 9.72 106.72 9.43L106.72 9.43L106.72 9.43Q106.29 9.14 105.25 8.95L105.25 8.95L105.25 8.95Q102.56 8.43 102.56 6.73L102.56 6.73L102.56 6.73Q102.56 6.05 102.97 5.57L102.97 5.57L102.97 5.57Q103.38 5.10 104.03 4.86L104.03 4.86L104.03 4.86Q104.69 4.62 105.43 4.62L105.43 4.62Z"></path></g><!----><g data-v-423bf9ae="" id="81c8da21-2e0f-4de6-8efb-4ececceae5cd" transform="matrix(1.1169024318055418,0,0,1.1169024318055418,-0.2627964316440625,-9.013544092672994)" stroke="none" fill="#F2CCB1"><circle cx="40.486" cy="37.794" r="5.816"></circle><circle cx="59.516" cy="37.794" r="5.816"></circle><path d="M85.887 25.629c-.973 0-1.919.107-2.834.302C75.771 15.5 63.687 8.67 50 8.67c-13.686 0-25.771 6.831-33.052 17.262a13.561 13.561 0 0 0-2.833-.302C6.641 25.63.584 31.688.584 39.16c0 5.976 3.878 11.037 9.252 12.829C11.385 72.824 28.769 89.25 50 89.25c21.233 0 38.616-16.426 40.167-37.262 5.373-1.792 9.252-6.853 9.252-12.829-.001-7.472-6.06-13.53-13.532-13.53zM10.508 45.49a5.963 5.963 0 1 1 0-11.925 5.963 5.963 0 0 1 0 11.925zM50 83.062c-14.272 0-26.235-7.656-29.458-17.962 6.768 3.454 17.515 5.585 29.457 5.585 11.943 0 22.69-2.131 29.458-5.585C76.235 75.406 64.273 83.062 50 83.062zm30.306-23.136c-4.811 3.572-15.816 6.76-30.307 6.76-14.488 0-25.495-3.188-30.305-6.759-.002-.131-.013-.26-.013-.392 0-5.793 2.703-11.093 7.177-15.193a14.04 14.04 0 0 1-2.652-8.218C24.206 28.323 30.529 22 38.329 22c4.85 0 9.127 2.447 11.67 6.171C52.542 24.447 56.819 22 61.669 22c7.802 0 14.125 6.323 14.125 14.124a14.04 14.04 0 0 1-2.652 8.218c4.474 4.1 7.177 9.4 7.177 15.193-.001.131-.01.261-.013.391zm9.186-14.436a5.961 5.961 0 0 1-5.963-5.963 5.963 5.963 0 1 1 5.963 5.963z"></path></g><!----></svg>